/vscmnt/brussel_pixiu_data/_data_brussel/112/vsc11236/PredSimResults/SUBJ10mtu3D/worker4.mot
version=1
nRows=9
nColumns=50
inDegrees=yes
endheader
                time	         pelvis_tilt	         pelvis_list	     pelvis_rotation	           pelvis_tx	           pelvis_ty	           pelvis_tz	       hip_flexion_r	     hip_adduction_r	      hip_rotation_r	        knee_angle_r	       ankle_angle_r	         mtp_angle_r	       hip_flexion_l	     hip_adduction_l	      hip_rotation_l	        knee_angle_l	       ankle_angle_l	         mtp_angle_l	    lumbar_extension	      lumbar_bending	     lumbar_rotation	 ercspn_r/activation	 intobl_r/activation	 extobl_r/activation	    abd_r/activation	    add_r/activation	hamstrings_r/activation	bifemsh_r/activation	glut_max_r/activation	iliopsoas_r/activation	rect_fem_r/activation	  vasti_r/activation	gastroc_r/activation	 soleus_r/activation	tib_ant_r/activation	 ercspn_l/activation	 intobl_l/activation	 extobl_l/activation	    abd_l/activation	    add_l/activation	hamstrings_l/activation	bifemsh_l/activation	glut_max_l/activation	iliopsoas_l/activation	rect_fem_l/activation	  vasti_l/activation	gastroc_l/activation	 soleus_l/activation	tib_ant_l/activation	
          0.00000000	         -4.52686523	         -0.32438183	          7.78436083	          0.00000000	          0.82225609	         -0.01299072	         30.45218060	         -2.04473946	         -6.35545800	         -5.96023505	          2.13963537	          0.27825903	        -16.30969909	          0.13374439	          0.51732139	         -5.28212779	          7.48196920	         26.83521312	         -7.23294309	         -1.22230629	         -5.42117195	          0.10690611	          0.16436616	          0.01000330	          0.01000022	          0.13941448	          0.10695214	          0.24517083	          0.04438206	          0.10560782	          0.01000640	          0.01000071	          0.01956212	          0.01219364	          0.27425221	          0.10294048	          0.01000065	          0.01000137	          0.05133574	          0.01000593	          0.01560478	          0.20005536	          0.01001123	          0.25668066	          0.01001452	          0.01000170	          0.28945674	          0.24776704	          0.02269856	
          0.01100152	         -4.55548720	         -0.30593102	          7.85884015	          0.01541287	          0.82097241	         -0.01290220	         30.35635563	         -1.93738257	         -5.94835920	         -7.62827068	          1.70593675	          0.26275072	        -16.47208991	          0.02212945	          0.19654615	         -6.83228498	          6.77168045	         28.41489600	         -7.05892281	         -0.78706064	         -5.68108355	          0.09034173	          0.13889867	          0.01000175	          0.02076467	          0.11781312	          0.09493756	          0.20720120	          0.08356321	          0.08924424	          0.01000110	          0.01000038	          0.01653129	          0.01030457	          0.37538821	          0.11396004	          0.01000043	          0.01000361	          0.04338144	          0.01004910	          0.01400316	          0.16905765	          0.01000423	          0.21690911	          0.01000261	          0.01000143	          0.25183016	          0.23756017	          0.01918156	
          0.02200305	         -4.57726429	         -0.29675522	          7.88665091	          0.03098816	          0.81997944	         -0.01269874	         30.15059955	         -1.82542846	         -5.60677836	         -9.07676994	          1.12698177	          0.25165836	        -16.48271846	         -0.10267567	         -0.16089696	         -8.66201227	          5.93845296	         29.92048748	         -6.87976815	         -0.34059853	         -5.91694844	          0.10370638	          0.11737686	          0.01000177	          0.06768049	          0.12316932	          0.08125745	          0.17509776	          0.09838205	          0.07541615	          0.01000136	          0.01000058	          0.01397002	          0.01000040	          0.46193204	          0.12348680	          0.01000034	          0.01000123	          0.03665963	          0.01000252	          0.01187762	          0.14286291	          0.01000313	          0.18330000	          0.01001944	          0.01000433	          0.21280993	          0.22341780	          0.01620952	
          0.03300457	         -4.59247550	         -0.28083145	          7.87118162	          0.04655018	          0.81938624	         -0.01238521	         29.92270100	         -1.71104936	         -5.34790729	        -10.48589985	          0.55711144	          0.23531328	        -16.27805009	         -0.22465981	         -0.55827096	        -10.85670185	          4.98238968	         31.26421412	         -6.71628820	          0.09856549	         -6.12635683	          0.11063618	          0.09918972	          0.01000177	          0.11043770	          0.17158920	          0.07157683	          0.14796777	          0.11026511	          0.06373068	          0.01000149	          0.01000066	          0.01180575	          0.01000049	          0.50753986	          0.15977176	          0.01000047	          0.01000116	          0.03097934	          0.01019020	          0.02273073	          0.12072698	          0.01183236	          0.15489848	          0.01001086	          0.01243793	          0.17983561	          0.20624893	          0.01369802	
          0.04400610	         -4.60040460	         -0.26034301	          7.81848191	          0.06201059	          0.81926135	         -0.01196835	         29.71254121	         -1.59260324	         -5.14607668	        -11.96138085	          0.18703266	          0.21759555	        -15.82434713	         -0.35040536	         -1.00181964	        -13.45582818	          3.91635548	         32.30364442	         -6.57232722	          0.52906849	         -6.31111901	          0.11711282	          0.08382060	          0.01000167	          0.14694872	          0.21922403	          0.06105705	          0.12504123	          0.12870771	          0.05385585	          0.01000195	          0.01000312	          0.01000142	          0.01000088	          0.49503726	          0.18837856	          0.01000052	          0.01000110	          0.02617920	          0.05208570	          0.02831246	          0.10202098	          0.01000432	          0.13089769	          0.01000619	          0.01051910	          0.15197055	          0.18635959	          0.01157580	
          0.05500762	         -4.60119302	         -0.23302216	          7.73037882	          0.07727471	          0.81967610	         -0.01146191	         29.53635738	         -1.47617953	         -4.99034945	        -13.53298124	          0.10159484	          0.20074570	        -15.07281551	         -0.48187207	         -1.50440034	        -16.52413006	          2.75838772	         32.86411260	         -6.45272142	          0.94623157	         -6.47037952	          0.12133621	          0.07083288	          0.01000156	          0.16903767	          0.26146610	          0.05723963	          0.10566710	          0.13288141	          0.04551109	          0.01000194	          0.02766575	          0.01000143	          0.01000069	          0.46578622	          0.21012539	          0.01000060	          0.01000107	          0.02212282	          0.11613108	          0.02475697	          0.08621350	          0.01000098	          0.11061575	          0.01000384	          0.01000215	          0.12842310	          0.15748456	          0.01000072	
          0.06600915	         -4.59575645	         -0.19402501	          7.60803250	          0.09230376	          0.82065700	         -0.01088723	         29.34620646	         -1.36193327	         -4.86044203	        -15.10574027	          0.30348951	          0.18875923	        -13.99397962	         -0.62293857	         -2.08113536	        -20.09359365	          1.50375456	         32.78032098	         -6.35614624	          1.34387954	         -6.60271374	          0.12137243	          0.05985757	          0.01000161	          0.17887963	          0.28750174	          0.05571613	          0.08929500	          0.12737623	          0.03845932	          0.01000171	          0.04392010	          0.01000100	          0.01000045	          0.40769776	          0.21685567	          0.01000073	          0.01000112	          0.01869497	          0.17929529	          0.02211145	          0.07285548	          0.01000068	          0.09347644	          0.01000301	          0.01000107	          0.10852427	          0.13308280	          0.01000068	
          0.07701067	         -4.58534432	         -0.14030611	          7.45234250	          0.10709465	          0.82215668	         -0.01026595	         29.07550139	         -1.24523328	         -4.72579802	        -16.55224992	          0.76710435	          0.19869836	        -12.58832168	         -0.78279081	         -2.72606798	        -24.11747275	          0.03403302	         32.06260058	         -6.27879989	          1.71895642	         -6.70609703	          0.11071470	          0.05058285	          0.01000169	          0.18196871	          0.29141224	          0.05711752	          0.07545979	          0.11151509	          0.03250021	          0.01000163	          0.07297109	          0.01000146	          0.01000068	          0.34452814	          0.21583975	          0.01000096	          0.01000121	          0.01579826	          0.24564704	          0.02811723	          0.06156757	          0.01000057	          0.07899282	          0.01000237	          0.01000057	          0.09170873	          0.11246197	          0.01000055	
          0.08801219	         -4.57223424	         -0.06853316	          7.26231963	          0.12163150	          0.82411266	         -0.00961570	         28.65261047	         -1.12154018	         -4.55898544	        -17.73081810	          1.45083726	          0.26150171	        -10.87710051	         -0.96812738	         -3.41796018	        -28.48954528	         -1.78819857	         30.75167433	         -6.22096420	          2.06824086	         -6.77844091	          0.09356257	          0.04274523	          0.01000176	          0.17799983	          0.27402557	          0.05949027	          0.06376834	          0.09423832	          0.02746445	          0.01000140	          0.10163140	          0.01000110	          0.01000052	          0.29114585	          0.20881143	          0.01000075	          0.01000141	          0.01335041	          0.29475782	          0.03756673	          0.05202972	          0.01000047	          0.06675342	          0.01000204	          0.01000036	          0.07749873	          0.09503627	          0.01000030	
